REM DIRINDEX 1\2,1\3,1\4
REM DIRNAME folder01,folder02,folder03,folder04
TITLE ""
FILE "Track69.mp3" MP3
  TRACK 01 AUDIO
    TITLE "2:cjc112_313"
    INDEX 01 00:00:00
  TRACK 02 AUDIO
    TITLE "0:"
    INDEX 01 00:01:44
  TRACK 03 AUDIO
    TITLE "3:cjc112_314"
    INDEX 01 00:02:08
  TRACK 04 AUDIO
    TITLE "0:"
    INDEX 01 00:05:50
  TRACK 05 AUDIO
    TITLE "4:cjc112_315"
    INDEX 01 00:10:19
  TRACK 06 AUDIO
    TITLE "0:"
    INDEX 01 00:13:65
